<svg t="1678688099216" class="icon" viewBox="0 0 1024 1024" version="1.1" xmlns="http://www.w3.org/2000/svg" p-id="2327" width="16" height="16"><path d="M737.488 264.382l-57.635 79.719c44.316 42.62 71.821 102.018 71.821 167.732 0 129.675-107.063 234.805-239.193 234.805-38.091 0-74.096-8.766-106.06-24.333l-42.717 59.085c46.447 11.184 96.186 17.681 148.36 17.681 287.475 0 490.363-190.217 496.014-283.462v-8.07c-4.016-68.532-107.012-182.965-270.59-243.157zM273.395 511.833c0-129.678 107.06-234.807 239.086-234.807 37.916 0 73.76 8.671 105.612 24.081l43.041-59.534c-46.299-10.757-96.203-16.98-149.07-16.98-283.162 0-496.056 192.057-496.142 287.024v0.116c0.062 67.59 107.475 184.521 271.809 246.32l57.043-78.9c-44.053-42.59-71.38-101.818-71.38-167.32z" p-id="2328"></path><path d="M642.627 511.833c0-29.787-9.982-57.24-26.774-79.21l-146.49 202.622c13.381 4.629 27.746 7.15 42.702 7.15 72.108 0 130.562-58.454 130.562-130.562z m-261.128 0c0 29.849 10.024 57.353 26.88 79.345l146.547-202.702c-13.427-4.665-27.846-7.208-42.861-7.208-72.112 0-130.566 58.455-130.566 130.565z m380.09-387.408l40.792 29.536-539.919 745.667-40.792-29.536z" p-id="2329"></path></svg>
